# xmcd
#
# Track frame offsets: 
#        150
#        13540
#        28503
#        45045
#        60795
#        73086
#        88318
#        100820
#        113486
#        127214
#        139738
#        155637
#        166447
#        177144
#        194149
#        207793
#
# Disc length: 3044 seconds
#
# Revision: 0
# Processed by: cddbd v1.5.2PL0 Copyright (c) Steve Scherf et al.
# Submitted via: ExactAudioCopy v0.99pb4
#
DISCID=d60be210
DTITLE=Percy Sledge - Stand By Me
DYEAR=2005
DGENRE=R&B
TTITLE0=When a Man Loves a Woman
TTITLE1=Warm and Tender Love
TTITLE2=Behind Closed Doors
TTITLE3=Just Out Of Reach
TTITLE4=My Adorable One
TTITLE5=Out of Left Field
TTITLE6=It Tears Me Up
TTITLE7=Cover Me
TTITLE8=Take Time to Know Her
TTITLE9=Sudden Stop
TTITLE10=Walkin' In The Sun
TTITLE11=You're Pouring Water On A Drowning Man
TTITLE12=Thief In The Night
TTITLE13=Make It Good, Make It Last
TTITLE14=My Special Prayer
TTITLE15=The Good Love
EXTD=
EXTT0=
EXTT1=
EXTT2=
EXTT3=
EXTT4=
EXTT5=
EXTT6=
EXTT7=
EXTT8=
EXTT9=
EXTT10=
EXTT11=
EXTT12=
EXTT13=
EXTT14=
EXTT15=
PLAYORDER=
